<svg xmlns="http://www.w3.org/2000/svg" xml:space="preserve" width="240" height="126" viewBox="0 0 63.5 33.337">
  <defs>
    <pattern id="stars" width="10" height="10" patternUnits="userSpaceOnUse">
      <g fill="#8495f1ff" transform="scale(.50)">
        <rect width="1" height="1" x="001" y="001" />
        <rect width="1" height="1" x="010" y="010" />
        <rect width="1" height="1" x="020" y="008" />
        <rect width="1" height="1" x="003" y="007" />
        <rect width="1" height="1" x="013" y="003" />
        <rect width="1" height="1" x="005" y="013" />
        <rect width="1" height="1" x="016" y="015" />
        <rect width="1" height="1" x="017" y="001" />
      </g>
    </pattern>
  </defs>

  <path fill="#51529bff" d="M0-.529h63.5v33.867H0z" />
  <rect class="stars" width="200%" height="200%" x="0" y="0" fill="url(#stars)" rx="0" ry="0">
    <animateTransform attributeName="transform" attributeType="XML" type="translate" begin="-2s" from="-10,-10" to="0,0" dur="10s" repeatCount="indefinite"/>
  </rect>

  <path fill="#9b634f" d="M33.867 33.338h17.991l-1.587-1.588-1.058-.53-1.059-.528-1.058-.53-2.117-.529h-2.116v-.529l-1.588-.529-1.587-.53-1.588-.528-1.587-.53-1.588-1.058-2.117-2.116h-.529v-1.588l-.529-2.117-.53-1.058-.528-.53-1.059-1.057-.529-1.059-2.116-2.116-1.059-.53-2.116-.529-7.938-.529h-3.704l-.53-.53-.528-1.057-1.059-1.059-.529-1.058-.53-1.058h-.528v1.587l.529 2.646.529 1.058.53 1.059 1.058 1.058H12.7v.529l1.058.53 2.117.528 3.175.53 2.117.529 1.058.529 1.058.529 1.059.53 1.058 1.057h1.058v1.059h.53v4.233l2.116 2.117.53 1.058.529.53 1.587 1.587z"/>
  <path fill="#935742" d="M26.987 14.287v.53h.53v-.53zm.53.53v.529h.529v-.53zm.529.529v.529h.529v-.53zm.529.529v.53h.53v-.53zm.53.53v1.058h.528v-1.059zm.528 1.057v.53h.53v-.53zm.53.53v.529h.529v-.53zm.529.529v.529h.529v-.53zm.529.529v1.058h.529V19.05zm.529 1.058v2.117h.53v-2.117zm.53 2.117v1.588h.528v-1.588zm.528 1.587v.53h.53v-.53zm.53.53v.529h.529v-.53zm.529.529v.529h.529v-.53zm.529.529v.53h.529v-.53zm.529.53v.528h1.058v-.529h-1.058m1.058.528v.53h1.059v-.53h-1.059m1.059.53v.529H38.1v-.53h-1.058m1.058.529v.529h1.588v-.53H38.1m1.587.529v.529h1.588v-.53h-1.588m1.588.529v.53h1.588v-.53h-1.588m1.587.53v.528h2.118v-.529h-2.118m2.117.528v.53h1.058v-.53H44.98M12.7 15.875v.53h1.058v-.53H12.7m33.867 13.758v.53h.529v-.53zm1.058.53v.529h.53v-.53zm.53.529v.529h1.058v-.53h-1.059m1.057.529v.529h1.059v-.53h-1.059m1.059.529v.53h.529v-.53zm.529.53v.528h.53v-.529zm.53.528v.53h.528v-.53z"/>
  <path fill="#9b634f" d="M47.096 30.162h.529v.529h-.529zM46.038 29.633h.529v.529h-.529zM36.512 26.987h.529v.529h-.529zM35.454 26.458h.529v.529h-.529z"/>
  <path fill="#bc7961" d="M8.467 7.408v.53h.529v-.53zm.529.53v1.058h.529V7.937zm.529 1.058v1.059h.53v-1.06zm.53 1.058v.53h.528v-.53zm.528.53v.528h.53v-.529zm.53.528v1.059h.529v-1.059zm.529 1.059v.529h.529v-.53zm.529.529v.53h1.059v-.53h-1.06m1.058 0h1.588v-.53h-1.588zM8.467 7.937h-.53v1.588h.53V7.937m0 1.588v2.646h.529V9.525zm7.408 3.175v.53h7.938v-.53h-7.938m7.937.53v.528h2.118v-.529h-2.118m2.117.528v.53h1.058v-.53H25.93m-15.875.53v.529h.53v-.53zm.53.529v.529h.528v-.53zm.528.529v.529H12.7v-.53h-1.588"/>
  <path fill="#9b634f" d="M15.346 12.171h.529v.529h-.529zM14.817 12.171h.529v.529h-.529zM8.996 12.171h.529v.529h-.529zM8.996 12.7h.529v.529h-.529zM9.525 13.229h.529v.529h-.529zM9.525 13.758h.529v.529h-.529z"/>
  <path fill="#7d4a37" d="M13.758 16.404v.53h2.117v-.53h-2.117m2.117.53v.528h3.175v-.529h-3.175m3.175.528v.53h2.117v-.53H19.05m2.117.53v.529h1.058v-.53h-1.058m1.058.529v.529h1.058v-.53h-1.058m1.058.529v.53h1.059v-.53h-1.059m1.059.53v.528h.529v-.529zm.529.528v.53h1.059v-.53h-1.06m1.058.53v1.058h.53v-1.059zm.53 1.058V25.4h.528v-3.705zm.528 3.704v1.058h.53V25.4zm.53 1.058v.53h.529v-.53zm.529.53v.529h.529v-.53zm.529.529v.529h.53v-.53zm.53.529v1.059h.528v-1.06zm.528 1.058v.53h.53v-.53zm.53.53v.528h.529v-.529zm.529.528v.53h.529v-.53zm.529.53v.529h.529v-.53zm.529.529v.529h.53v-.53zm.53.529v.53h.528v-.53zm.528.53v.528h.53v-.529zm.53.528v.53h.529v-.53z"/>
  <path fill="#985c46" d="M8.996 10.054v.53h.529v-.53zm.529.53v1.058h.53v-1.059zm.53 1.058V12.7h.528v-1.058zm.528 1.058v.53h.53v-.53zm.53.53v.528h.529v-.529zm.529.528v.53h1.588v-.53h-1.588m1.587.53v.529h7.938v-.53h-7.938m7.938.529v.529h1.588v-.53h-1.588m1.587.529v.529h2.117v-.53h-2.117m2.117.529v.53h.529v-.53zm.529.53v.528h.53v-.529zm.53.528v.53h1.058v-.53h-1.059m1.057.53v.529h.53v-.53zm.53.529v.529h.529v-.53zm.529.529v.529h.529v-.53zm.529.529v.53h.53v-.53zm.53.53v2.645h.528v-2.646zm.528 2.645V25.4h.53v-3.175zm.53 3.175v.53h.529v-.53zm.529.53v.528h.529v-.529zm.529.528v.53h1.059v-.53h-1.06m1.058.53v.529h1.058v-.53H32.28m1.058.529v.529h.53v-.53zm.53.529v.529h1.058v-.53h-1.058m1.058.529v.53h.53v-.53zm.53.53v.528h1.058v-.529h-1.059m1.057.528v.53h.53v-.53zm.53.53v.529H38.1v-.53h-1.058m1.058.529v.529h1.058v-.53H38.1m1.058.529v.529h2.117v-.53h-2.117m2.117.529v.53h2.117v-.53h-2.117m2.117.53v.528h1.058v-.529h-1.058m1.058.528v.53h.53v-.53zM21.696 13.23v.53h.529v-.53zm.529.53v.528h1.058v-.529h-1.058m1.058.528v.53h2.647v-.53h-2.647m2.646.53v.529h.53v-.53zm.53.529v.529h.528v-.53zm.528.529v.53h.53v-.53zm.53.53v.528h.529v-.529zm.529.528v.53h.529v-.53zm.529.53v.529h.53v-.53zm.53.529v.529h.528v-.53zm.528.529v.529h.53v-.53zm.53.529v1.588h.529V19.05zm.529 1.587v2.646h.529v-2.646zm.529 2.646v1.059h.529v-1.059zm.529 1.059V25.4h.53v-1.058zm.53 1.058v.53h1.587v-.53h-1.588m1.587.53v.528h.529v-.529zm.529.528v.53h.529v-.53zm.529.53v.529h.53v-.53zm.53.529v.529h1.058v-.53h-1.059m1.057.529v.529h1.059v-.53h-1.059m1.059.529v.53h.529v-.53zm.529.53v.528h2.646v-.529H38.1m2.646.528v.53h1.059v-.53h-1.06m1.058.53v.529h1.058v-.53h-1.058m1.058.529v.529h1.588v-.53h-1.588m1.588.529v.529h2.646v-.53H44.45m2.646.529v.53h.529v-.53zm.529.53v.528h.53v-.529zm.53.528v.53h.528v-.53zm-31.75-16.933v.53h4.233v-.53h-4.234m4.232.53v.528h1.588v-.529h-1.588m1.588.528v.53h1.588v-.53h-1.588m1.587.53v.529h.53v-.53zm.53.529v.529H25.4v-.53h-1.058m1.058.529v1.059h.53v-1.06zm.53 1.058v.53h.528v-.53zm.528.53v.528h.53v-.529zm.53.528v.53h.529v-.53zm.529.53v3.704h.529v-3.704zm.529 3.704v1.587h.529V24.87zm.529 1.587v.53h.53v-.53zm.53.53v.529h.528v-.53zm.528.529v.529h.53v-.53zm.53.529v.529h.529v-.53zm.529.529v.53h1.058v-.53h-1.058m1.058.53v.528h1.058v-.529H31.75m1.058.528v.53h1.059v-.53h-1.059m1.059.53v.529h1.058v-.53h-1.058m1.058.529v1.058h.53v-1.058zm.53 1.058v.53h.528v-.53zm.528.53v.528h.53v-.529zm.53.528v.53h.529v-.53zM16.403 16.404h-.529v.53h.53zM37.571 31.75v1.058h.529v-.529h.53v-.529h-1.06m1.058.53v.528h2.117v-.529h-2.117m2.117.528v.53h.529v-.53zm-2.117 0H38.1v.53h.53z"/>
  <path fill="#a4d56a" d="M14.817 11.642h.529v.529h-.529z"/>
  <path fill="#96c55e" d="M7.937 4.762V6.88h1.059V5.291h-.53v-.53zm8.467 2.646v1.059h.53V7.408zm.53 1.059v2.116h.528v-.529h.53V8.995h-.53v-.528zm.528 2.116v.53h.53v-.53zm0 .53h-1.058v.529h1.058zm-1.058.529h-.529v.529h.53zm-.529 0v-1.059h-.53v-.529h-.528v1.588h1.058m-.53-1.588h.53v.53h.53V9.524h-.53v-.53h-.53v1.06m.53-1.058h.53v-.53h-.53zM6.35 12.7v1.058h.53v.53h1.587v-.53h-.53v-.529h-.529V12.7H6.35m1.587.53h.53v.528h.529V12.7H7.937zm1.059.528v.53h-.53v1.058h.53v-.53h.529v-1.058zm-.53 1.588h-.529v-.53H6.88v1.059h1.588zm-1.587.529H6.35v.53h.53zm-.529 0v-.53H4.762v-.528h-.529v1.058h1.059v.53h.529v-.53zm-1.588-1.058H6.88v-.53h-.53v-.529H5.292v.53h-.53z"/>
  <path fill="#c0e594" d="M7.937 4.233v.53h.53v-.53zm.53.53v.529h.529v-.53zm.529.529v.529h.529v-.53zm-1.059-.53h-.529v.53h.53zm8.467 2.117v.53h.53v-.53zm.53.53v.528h.528v-.529zm.528.528v1.059h.53V7.937zm-1.058-.529h-.529v1.059h.53V7.408m-.529 1.059h-.53v.529h.53zm-.53.529h-.528v.529h.529zm-.528.529h-.53v2.117h.53V9.525M6.35 12.171v.529h2.646v-.53H6.35m0 .529h-.53v.53h.53zm-.53.53h-.528v.528h.529zm-.528.528h-.53v.53h.53zm-.53.53h-.529v.529h.53zm-.529.529H3.175v.529h1.058z"/>
  <path fill="#a4d56a" d="M17.992 8.996h.529v.529h-.529zM17.992 9.525h.529v.529h-.529zM17.992 10.054h.529v.529h-.529z"/>
  <path fill="#7fb241" d="M8.996 5.82v1.06h.529V5.82zm0 1.06h-.53v.528h.53zm8.996 3.703v.53h.529v-.53zm0 .53h-.53v.529h.53zm-.53.529h-1.058v.529h1.058zm-1.058.529h-.529v.529h.53zm-.529.529h-.53v.53h.53zm-6.88 2.117v.529h.53v-.53zm0 .529h-.528v.529h.529zm-.528.529H6.879v.53h1.588zm-1.588.53H5.292v.528H6.88z"/>
  <path fill="#7db262" d="M16.933 7.937v.53h.53v-.53zm0 .53h-.529v.529h-.529v.529h.53v1.058h-.53v1.059h.53v-.53h1.058v-.529h-.53V8.467m.53 2.116h.529v-.529h-.53zm-1.588 1.059h-.53V12.7h.53v-1.058m0-1.059v-.529h-.53v.53zm-.53-.529v-.529h-.528v.53zM7.409 12.7v.53h.53v-.53zm.53.53v.528h.529v-.529zm.529.528v.53h.529v-.53zm.529 0h.529v-.529h-.53zm-.53.53H6.88v.529h1.058v.529h.53v-1.059m-1.587.529H4.762v.529H6.35v.529h.53v-1.058m-.529 1.058h-.53v.53h.53zm.53-1.588v-.529h-.53v.53zm-.53-.529v-.529h-.53v.53z"/>
  <path fill="#a4d56a" d="M8.996 12.7h.529v.529h-.529zM3.704 15.346h.529v.529h-.529zM4.233 15.875h.529v.529h-.529zM4.763 15.875h.529v.529h-.529zM9.525 14.287h.529v.529h-.529zM9.525 13.758h.529v.529h-.529zM9.525 13.229h.529v.529h-.529zM7.938 6.879h.529v.529h-.529zM7.408 6.35h.529v.529h-.529zM7.408 5.821h.529v.529h-.529zM7.408 5.292h.529v.529h-.529zM14.817 12.171h.529v.529h-.529z"/>
  <path fill="#e3bf5c" d="M31.75 11.113v.529h2.117v-.53h-1.588z"/>
  <path fill="#cca846" d="M32.28 11.642v.529h1.587v-.53h-1.059z"/>
  <path fill="#dac179" d="M41.275 12.17v.53h-.53v.53h-.528v.528h-.53v1.059h.53v1.588h.529v3.175h.529v.528h.53v.53h1.058v.529h1.587v.529h5.821v-.53h1.059V19.58h-.53v-.529h-.53v-.53h-.528v-.528h-.53v-.53h-.529v-.529h-.529v-.529h-.529v-.529h-.53v-.53h-.528v-.528h-.53v-.53h-.529v-.529h-.529v-.529h-.529V12.7h-.53v-.53h-2.116z"/>
  <path fill="#b8a56e" d="M39.688 14.288v.529h2.645v-.53h-2.116zm2.645.529v.529h2.117v-.53h-1.588zm2.117.529v.529h2.117v-.53h-1.588zm2.117.529v.53h1.058v-.53h-.53zm-6.35 0v.53h2.116v-.53h-1.588zm2.116.53v.528h2.117v-.529h-1.588zm2.117.528v.53h2.117v-.53h-1.588zm2.117.53v.529h1.588v-.53h-1.06zm1.587.529v.529h1.059v-.53h-.53zm1.059.529v.529h1.058v-.53h-.53zm-8.467-1.058v.529h1.587v-.53h-1.058zm1.587.529v.529h2.117v-.53h-1.588zm2.117.529v.529h2.117v-.53h-1.588zm2.117.529v.53h1.588v-.53h-1.06zm1.587.53v.528h1.059v-.529h-.53zm1.059.528v.53h1.058v-.53h-.53zm1.058.53v.529h1.059v-.53h-.53z"/>
  <path fill="#edcd6f" d="M47.096 15.875h.529v.53h-.529z"/>
  <path fill="#d5bb6f" d="M47.096 15.875h.529v.53h-.529zM49.742 18.52h.529v.53h-.529z"/>
  <path fill="#e3ce99" d="M36.513 8.996v.529H38.1v.53h.53v.528h.528v1.588h-.529v.529h.53v1.058h1.058v-.529h.529V12.7h.529v-.53h2.117v-.528h-.53v-.53h-.529v-.529h-.529v-.529h-.529v-.529h-1.588v-.53h-2.645zm14.816 11.112v1.059h-1.058v.529H44.45v-.53h-1.588v.53h1.059v.529h2.117v.53h2.117v.528h1.058v.53H50.8v-.53h7.938v-.529h.529v-1.059h-.53v-.528H57.15v-.53h-1.588v-.529h-3.704zm-8.466 1.059v-.53h-.53v.53z"/>
  <path fill="#dbbd73" d="M51.33 20.638v.529h5.82v-.53h-5.292zm-1.06 1.058v.529h8.997v-.53H50.8z"/>
  <path fill="#c5b282" d="M57.15 21.167v.529h1.588v-.53h-1.059zm1.588 1.058v.53h.529v-.53zm0 .53H50.8v.528h7.938zm-7.938.528h-1.058v.53H50.8z"/>
  <path fill="#f4dfaa" d="M51.33 20.108v.53h4.233v-.53h-3.705z"/>
  <path fill="#cfb29a" d="M42.333 25.93v1.058h.53v-1.059zm0 1.058h-.529v1.058h.53v-.53zm-.529 1.058h-.529v1.059h.53v-.53zm-.529 1.058h-.53v1.059h-1.587v.529h3.175v-.53h-1.058v-.529zm4.233-3.175v1.059h.53v-1.059zm.53 1.059h-.53v1.058h.53v-.53zm0 1.058h-.53v1.059h.53v-.53zm0 1.058h-.53v2.117H43.92v.529h3.176v-.53h-1.058v-1.587z"/>
  <path fill="#b5c1c1" d="M36.513 8.996v.529h-1.059v.53h-.529v.528h1.588v.53H38.1v1.058h.53v.529h.528v.53h.53v-.53h.529v-.53h.529v-.528h2.117v-.53h-.53v-.529h-.529v-.529h-.529v-.529h-1.588v-.53h-2.645zm4.233 10.583v1.059h.529v2.117h.53v1.587h-1.588V25.4h1.058v.53h5.292v-.53h1.058v-.53h1.058v-.528h1.059v-.53h-.53v-.529h-1.058v-.529h-2.117v-.529H43.92v-.53h-1.058v-.528h-.529v-.53h-.529v-.529h-.529v-.529z"/>
  <path fill="#8fa8a8" d="M42.333 21.167v1.058h-.529v2.117h-.529v.529h-1.058v.529h1.058v.53h5.292v-.53h1.058v-.53h1.058v-.528h1.059v-.53h-.53v-.529h-1.058v-.529h-2.117v-.529H43.92v-.53h-1.058v-.528z"/>
  <path fill="#bdd7d7" d="M36.513 8.996v.529h-1.059v.53h-.529v.528h1.588v.53H38.1v.529h1.588V12.7h.529v-.53h.529v-.528h1.587v-1.059h-.529v-.529h-.529v-.529h-1.588v-.53h-2.645z"/>
  <path fill="#cfe4e4" d="M36.513 8.996v.529h3.175v-.53h-2.646zm3.175.529v.53h1.587v-.53h-1.058zm1.587.53v.528h.53v-.529zm.53.528v.53h.528v-.53zm.528.53v.529h.53v-.53zm-5.82-1.588h-1.059v.53h1.059zm-1.059.53h-.529v.528h.53z"/>
  <path fill="#74a0a0" d="M48.683 23.813v.529h1.059v-.53h-.53zm0 .529h-1.058v.529h1.058zm-1.058.529h-1.058v.529h1.058zm-1.058.529h-5.292v.53h5.292zm-5.292 0v-.53h-1.058v.53h.529z"/>
  <path fill="#ee9c6c" d="M34.396 10.583v.53h-.53v1.058h-.528v3.175h.529v2.646h.529v1.058h.529v1.058h.53v.53h.528v.529h.53v.529h.529v.529h.529v.53h.529v.528h.53v.53h.528v.529h.53v.529h1.587v-.53h.53v-1.587h-.53v-2.117h-.53v-4.233h-.528v-1.587h-.53v-1.059h-.529V12.7h-.529v-.53H38.1v-1.058h-1.588v-.529h-1.587z"/>
  <path fill="#f2ad86" d="M34.396 10.583v.53h.529v-.53zm0 .53h-.53v.529h.53zm-1.058 1.058v3.175h.529V12.17zm.529 3.175v2.646h.529v-2.647zm.529 2.646v1.058h.529v-1.058zm.529 1.058v1.058h.53V19.05zm.53 1.058v.53h.528v-.53zm.528.53v.529h.53v-.53zm3.705 3.704v.529h.529v-.53z"/>
  <path fill="#dc8554" d="M36.513 21.167v.529h.529v-.53zm.529.529v.529h.529v-.53zm.529.529v.53h.529v-.53zm.529.53v.528h.53v-.529zm.53.528v.53h.528v-.53zm.528.53v.529h.53v-.53zm.53.529v.529h.529v-.53z"/>
  <path fill="#3b2610" d="M36.513 11.642v1.588h1.058v-.53h-.53v-.53h.53v-.528h-.53z"/>
  <path fill="#d2e2e5" d="M37.042 12.17h.529v.53h-.529z"/>
  <path fill="#fae097" d="M42.863 11.642v.529h.529v-.53zm.529.529v.529h.529v-.53zm.529.529v.53h.529v-.53zm.529.53v.528h.53v-.529zm.53.528v.53h.528v-.53zm.528.53v.529h.53v-.53zm.53.529v.529h.529v-.53zm.529.529v.529h.529v-.53zm1.058 1.058v.53h.53v-.53zm.53.53v.529h.528v-.53zm.528.529v.529h.53v-.53zm.53.529v.529h.529v-.53zm1.058 1.058v.53h.529v-.53zm.529.53v.528h.53v-.529z"/>
</svg>